<?xml version="1.0" encoding="utf-8"?>
<!DOCTYPE svg PUBLIC "-//W3C//DTD SVG 1.1//EN" "http://www.w3.org/Graphics/SVG/1.1/DTD/svg11.dtd">
<svg version="1.1" baseProfile="full"
 xmlns="http://www.w3.org/2000/svg"
 xmlns:xlink="http://www.w3.org/1999/xlink"
 xmlns:ev="http://www.w3.org/2001/xml-events" 
  height="6px" 
  width="10px" 
>
<path fill="rgb( 55, 63, 70 )"
 d="M0.995,1.298 C0.995,1.22199999999998 1.04499999999996,1.161 1.08900000000006,1.089 C1.47900000000004,0.44099999999997 1.875,0.88400000000001 2,0.99900000000002 C2,0.99900000000002 5,3.99900000000002 5,3.99900000000002 C5,3.99900000000002 8,0.99900000000002 8,0.99900000000002 C8.12400000000002,0.88400000000001 8.64700000000005,0.54199999999997 9,0.99900000000002 C9.10299999999995,1.13400000000001 9.03800000000001,1.39100000000002 8.91399999999999,1.50599999999997 C8.91399999999999,1.50599999999997 5.22699999999998,4.91899999999998 5.22699999999998,4.91899999999998 C5.10199999999998,5.03399999999999 4.89999999999998,5.03399999999999 4.77599999999995,4.91899999999998 C4.77599999999995,4.91899999999998 1.08900000000006,1.50599999999997 1.08900000000006,1.50599999999997 C1.02599999999995,1.44799999999998 0.995,1.37299999999999 0.995,1.298 Z "/>
</svg>
