<?xml version="1.0" encoding="utf-8"?>
<!DOCTYPE svg PUBLIC "-//W3C//DTD SVG 1.1//EN" "http://www.w3.org/Graphics/SVG/1.1/DTD/svg11.dtd">
<svg version="1.1" baseProfile="full"
 xmlns="http://www.w3.org/2000/svg"
 xmlns:xlink="http://www.w3.org/1999/xlink"
 xmlns:ev="http://www.w3.org/2001/xml-events" 
  height="9px" 
  width="11px" 
>
<path fill="rgb( 55, 63, 70 )"
 d="M7.21499999999992,1.12299999999999 C7.0329999999999,1.30699999999999 7.0329999999999,1.607 7.21499999999992,1.792 C7.21499999999992,1.792 9.39699999999993,4.011 9.39699999999993,4.011 C9.39699999999993,4.011 1.44900000000007,4.011 1.44900000000007,4.011 C1.19299999999998,4.011 0.98399999999992,4.22300000000001 0.98399999999992,4.48400000000001 C0.98399999999992,4.74600000000001 1.19299999999998,4.95699999999999 1.44900000000007,4.95699999999999 C1.44900000000007,4.95699999999999 9.39699999999993,4.95699999999999 9.39699999999993,4.95699999999999 C9.39699999999993,4.95699999999999 7.21499999999992,7.17699999999999 7.21499999999992,7.17699999999999 C7.0329999999999,7.36199999999999 7.0329999999999,7.661 7.21499999999992,7.846 C7.39599999999996,8.03100000000001 7.69100000000003,8.03100000000001 7.87200000000007,7.846 C7.87200000000007,7.846 10.848,4.81899999999999 10.848,4.81899999999999 C10.9390000000001,4.726 10.9839999999999,4.60499999999999 10.9839999999999,4.48400000000001 C10.9839999999999,4.363 10.9390000000001,4.24199999999999 10.848,4.15000000000001 C10.848,4.15000000000001 7.87200000000007,1.12299999999999 7.87200000000007,1.12299999999999 C7.69100000000003,0.93799999999999 7.39599999999996,0.93799999999999 7.21499999999992,1.12299999999999 Z "/>
</svg>
