<?xml version="1.0" encoding="utf-8"?>
<!DOCTYPE svg PUBLIC "-//W3C//DTD SVG 1.1//EN" "http://www.w3.org/Graphics/SVG/1.1/DTD/svg11.dtd">
<svg version="1.1" baseProfile="full"
 xmlns="http://www.w3.org/2000/svg"
 xmlns:xlink="http://www.w3.org/1999/xlink"
 xmlns:ev="http://www.w3.org/2001/xml-events" 
  height="9px" 
  width="11px" 
>
<path fill="rgb( 55, 63, 70 )"
 d="M3.78500000000008,1.12299999999999 C3.9670000000001,1.30699999999999 3.9670000000001,1.607 3.78500000000008,1.792 C3.78500000000008,1.792 1.60300000000007,4.011 1.60300000000007,4.011 C1.60300000000007,4.011 9.55099999999993,4.011 9.55099999999993,4.011 C9.80700000000002,4.011 10.0160000000001,4.22300000000001 10.0160000000001,4.48400000000001 C10.0160000000001,4.74600000000001 9.80700000000002,4.95699999999999 9.55099999999993,4.95699999999999 C9.55099999999993,4.95699999999999 1.60300000000007,4.95699999999999 1.60300000000007,4.95699999999999 C1.60300000000007,4.95699999999999 3.78500000000008,7.17699999999999 3.78500000000008,7.17699999999999 C3.9670000000001,7.36199999999999 3.9670000000001,7.661 3.78500000000008,7.846 C3.60400000000004,8.03100000000001 3.30899999999997,8.03100000000001 3.12799999999993,7.846 C3.12799999999993,7.846 0.15200000000004,4.81899999999999 0.15200000000004,4.81899999999999 C0.06099999999992,4.726 0.01600000000008,4.60499999999999 0.01600000000008,4.48400000000001 C0.01600000000008,4.363 0.06099999999992,4.24199999999999 0.15200000000004,4.15000000000001 C0.15200000000004,4.15000000000001 3.12799999999993,1.12299999999999 3.12799999999993,1.12299999999999 C3.30899999999997,0.93799999999999 3.60400000000004,0.93799999999999 3.78500000000008,1.12299999999999 Z "/>
</svg>
