<?xml version="1.0" encoding="utf-8"?>
<!DOCTYPE svg PUBLIC "-//W3C//DTD SVG 1.1//EN" "http://www.w3.org/Graphics/SVG/1.1/DTD/svg11.dtd">
<svg version="1.1" baseProfile="full"
 xmlns="http://www.w3.org/2000/svg"
 xmlns:xlink="http://www.w3.org/1999/xlink"
 xmlns:ev="http://www.w3.org/2001/xml-events" 
  height="16px" 
  width="18px" 
>
<path fill="rgb( 55, 63, 70 )"
 d="M16.016,1.02100000000019 C15.4,0.36299999999983 14.581,0 13.709,0 C12.838,0 12.018,0.36299999999983 11.402,1.02100000000019 C11.402,1.02100000000019 1.70999999999998,11.3850000000002 1.70999999999998,11.3850000000002 C0.72399999999999,12.4389999999999 0.72399999999999,14.1550000000002 1.70999999999998,15.2089999999998 C2.20299999999997,15.7359999999999 2.851,16 3.49900000000002,16 C4.14600000000002,16 4.79399999999998,15.7359999999999 5.28699999999998,15.2089999999998 C5.28699999999998,15.2089999999998 12.92,7.04700000000003 12.92,7.04700000000003 C13.62,6.29899999999998 13.62,5.08300000000008 12.92,4.33500000000004 C12.221,3.58699999999999 11.083,3.58699999999999 10.383,4.33500000000004 C10.383,4.33500000000004 5.47899999999999,9.57799999999997 5.47899999999999,9.57799999999997 C5.32999999999998,9.73799999999983 5.32999999999998,9.99800000000005 5.47899999999999,10.1579999999999 C5.62900000000002,10.3180000000002 5.87200000000001,10.3180000000002 6.02100000000002,10.1579999999999 C6.02100000000002,10.1579999999999 10.925,4.91400000000021 10.925,4.91400000000021 C11.326,4.48599999999988 11.977,4.48599999999988 12.378,4.91400000000021 C12.779,5.3420000000001 12.779,6.03900000000021 12.378,6.46799999999985 C12.378,6.46799999999985 4.745,14.6289999999999 4.745,14.6289999999999 C4.05799999999999,15.364 2.93900000000002,15.364 2.25200000000001,14.6289999999999 C1.91899999999998,14.2730000000001 1.73599999999999,13.8000000000002 1.73599999999999,13.297 C1.73599999999999,12.7930000000001 1.91899999999998,12.3200000000002 2.25200000000001,11.9639999999999 C2.25200000000001,11.9639999999999 11.944,1.60100000000011 11.944,1.60100000000011 C12.416,1.09700000000021 13.042,0.81899999999996 13.709,0.81899999999996 C14.376,0.81899999999996 15.003,1.09700000000021 15.474,1.60100000000011 C16.447,2.64199999999983 16.447,4.33500000000004 15.474,5.375 C15.474,5.375 8.51100000000002,12.8200000000002 8.51100000000002,12.8200000000002 C8.36200000000002,12.98 8.36200000000002,13.2399999999998 8.51100000000002,13.4000000000001 C8.661,13.5599999999999 8.904,13.5599999999999 9.053,13.4000000000001 C9.053,13.4000000000001 16.016,5.95499999999993 16.016,5.95499999999993 C17.288,4.5949999999998 17.288,2.38200000000006 16.016,1.02100000000019 Z "/>
</svg>
