<?xml version="1.0" encoding="utf-8"?>
<!DOCTYPE svg PUBLIC "-//W3C//DTD SVG 1.1//EN" "http://www.w3.org/Graphics/SVG/1.1/DTD/svg11.dtd">
<svg version="1.1" baseProfile="full"
 xmlns="http://www.w3.org/2000/svg"
 xmlns:xlink="http://www.w3.org/1999/xlink"
 xmlns:ev="http://www.w3.org/2001/xml-events" 
  height="17px" 
  width="13px" 
>
<path fill="rgb( 202, 203, 211 )"
 d="M12.579,4.77399999999989 C12.579,4.77399999999989 11.376,15.2530000000002 11.376,15.2530000000002 C11.38,16.9479999999999 6.99900000000002,16.9989999999998 6.5,16.9989999999998 C6,16.9989999999998 1.61800000000005,16.9479999999999 1.61800000000005,15.183 C1.61800000000005,15.183 0.41899999999998,4.77300000000014 0.41899999999998,4.77300000000014 C0.15099999999995,4.45400000000018 0,4.09299999999985 0,3.6909999999998 C0,2.5590000000002 1.24199999999996,1.63299999999981 3.40800000000002,1.15200000000004 C3.71400000000006,1.08199999999988 4.02499999999998,1.28600000000006 4.09299999999996,1.60600000000022 C4.15999999999997,1.92599999999993 3.96199999999999,2.24200000000019 3.65099999999995,2.31100000000015 C1.83100000000002,2.71599999999989 1.15200000000004,3.37199999999984 1.15200000000004,3.6909999999998 C1.15200000000004,4.35600000000022 3.28499999999997,5.36299999999983 6.5,5.36299999999983 C9.71400000000006,5.36299999999983 11.847,4.35600000000022 11.847,3.6909999999998 C11.847,3.36099999999988 11.14,2.6880000000001 9.24300000000005,2.28699999999981 C8.93100000000004,2.22200000000021 8.73000000000002,1.9079999999999 8.79399999999998,1.58699999999999 C8.85799999999995,1.26699999999983 9.16200000000003,1.05999999999995 9.47400000000005,1.1260000000002 C11.7140000000001,1.59900000000016 13,2.53400000000011 13,3.6909999999998 C13,4.09400000000005 12.848,4.45499999999993 12.579,4.77399999999989 ZM6.5,6.54799999999977 C4.72199999999998,6.54799999999977 2.93299999999999,6.25 1.68299999999999,5.67000000000007 C1.68299999999999,5.67000000000007 2.76599999999996,15.1030000000001 2.76599999999996,15.1030000000001 C3.005,15.3580000000002 4.30999999999995,15.8130000000001 6.5,15.8130000000001 C8.70100000000002,15.8130000000001 10.01,15.3510000000001 10.237,15.096 C10.237,15.096 11.316,5.67099999999982 11.316,5.67099999999982 C10.066,6.25 8.27700000000004,6.54799999999977 6.5,6.54799999999977 ZM8.73400000000004,14.8159999999998 C8.72000000000003,14.8159999999998 8.70600000000002,14.8150000000001 8.69100000000003,14.8139999999999 C8.37400000000002,14.7890000000002 8.13499999999999,14.5050000000001 8.15899999999999,14.1790000000001 C8.15899999999999,14.1790000000001 8.62300000000005,7.68100000000004 8.62300000000005,7.68100000000004 C8.64700000000005,7.35399999999981 8.93499999999995,7.11299999999983 9.24000000000001,7.13299999999981 C9.55700000000002,7.15700000000015 9.79600000000005,7.4409999999998 9.77200000000005,7.76800000000003 C9.77200000000005,7.76800000000003 9.30799999999999,14.2660000000001 9.30799999999999,14.2660000000001 C9.28599999999994,14.578 9.03300000000002,14.8159999999998 8.73400000000004,14.8159999999998 ZM6.5,14.8159999999998 C6.18200000000002,14.8159999999998 5.92399999999998,14.5500000000002 5.92399999999998,14.223 C5.92399999999998,14.223 5.92399999999998,7.72400000000016 5.92399999999998,7.72400000000016 C5.92399999999998,7.39699999999993 6.18200000000002,7.13099999999986 6.5,7.13099999999986 C6.81799999999998,7.13099999999986 7.07600000000002,7.39699999999993 7.07600000000002,7.72400000000016 C7.07600000000002,7.72400000000016 7.07600000000002,14.223 7.07600000000002,14.223 C7.07600000000002,14.5500000000002 6.81799999999998,14.8159999999998 6.5,14.8159999999998 ZM4.30799999999999,14.8139999999999 C4.29399999999998,14.8150000000001 4.27999999999997,14.8159999999998 4.26499999999999,14.8159999999998 C3.96699999999998,14.8159999999998 3.71400000000006,14.578 3.69100000000003,14.2660000000001 C3.69100000000003,14.2660000000001 3.22699999999998,7.76800000000003 3.22699999999998,7.76800000000003 C3.20399999999995,7.4409999999998 3.44200000000001,7.15700000000015 3.75999999999999,7.13299999999981 C4.077,7.11400000000003 4.35299999999995,7.35399999999981 4.37599999999998,7.68100000000004 C4.37599999999998,7.68100000000004 4.84100000000001,14.1790000000001 4.84100000000001,14.1790000000001 C4.86400000000003,14.5050000000001 4.625,14.7890000000002 4.30799999999999,14.8139999999999 ZM7.98400000000004,3.47299999999996 C7.66600000000005,3.47299999999996 7.40800000000002,3.20699999999988 7.40800000000002,2.88000000000011 C7.40800000000002,2.50300000000016 6.99300000000005,2.18499999999995 6.50099999999998,2.18499999999995 C6.00900000000001,2.18499999999995 5.59299999999996,2.50300000000016 5.59299999999996,2.88000000000011 C5.59299999999996,3.20699999999988 5.33500000000004,3.47299999999996 5.01700000000005,3.47299999999996 C4.69899999999996,3.47299999999996 4.44100000000003,3.20699999999988 4.44100000000003,2.88000000000011 C4.44100000000003,1.84299999999985 5.36500000000001,0.9989999999998 6.50099999999998,0.9989999999998 C7.63699999999994,0.9989999999998 8.55999999999995,1.84299999999985 8.55999999999995,2.88000000000011 C8.55999999999995,3.20800000000008 8.30200000000002,3.47299999999996 7.98400000000004,3.47299999999996 Z "/>
</svg>
