<?xml version="1.0" encoding="utf-8"?>
<!DOCTYPE svg PUBLIC "-//W3C//DTD SVG 1.1//EN" "http://www.w3.org/Graphics/SVG/1.1/DTD/svg11.dtd">
<svg version="1.1" baseProfile="full"
 xmlns="http://www.w3.org/2000/svg"
 xmlns:xlink="http://www.w3.org/1999/xlink"
 xmlns:ev="http://www.w3.org/2001/xml-events" 
  height="16px" 
  width="16px" 
>
<path stroke="rgb( 202, 203, 211 )" stroke-width="1px" stroke-linecap="butt" stroke-linejoin="miter" fill="#fff"
 d="M2,1 C2,1 14,1 14,1 C15.105,1 16,1.89499999999998 16,3 C16,3 16,14 16,14 C16,15.104 15.105,16 14,16 C14,16 2,16 2,16 C0.89499999999998,16 0,15.104 0,14 C0,14 0,3 0,3 C0,1.89499999999998 0.89499999999998,1 2,1 Z "/>
<path stroke="rgb( 202, 203, 211 )" stroke-width="1px" stroke-linecap="butt" stroke-linejoin="miter" fill="rgb( 202, 203, 211 )"
 d="M12,3 C11.448,3 11,2.55200000000002 11,2 C11,2 11,1 11,1 C11,0.447 11.448,0 12,0 C12.552,0 13,0.447 13,1 C13,1 13,2 13,2 C13,2.55200000000002 12.552,3 12,3 ZM13,7 C13,7 11,7 11,7 C11,7 11,5 11,5 C11,5 13,5 13,5 C13,5 13,7 13,7 ZM8,3 C7.44799999999998,3 7,2.55200000000002 7,2 C7,2 7,1 7,1 C7,0.447 7.44799999999998,0 8,0 C8.55200000000002,0 9,0.447 9,1 C9,1 9,2 9,2 C9,2.55200000000002 8.55200000000002,3 8,3 ZM9,7 C9,7 7,7 7,7 C7,7 7,5 7,5 C7,5 9,5 9,5 C9,5 9,7 9,7 ZM4,3 C3.44799999999998,3 3,2.55200000000002 3,2 C3,2 3,1 3,1 C3,0.447 3.44799999999998,0 4,0 C4.55200000000002,0 5,0.447 5,1 C5,1 5,2 5,2 C5,2.55200000000002 4.55200000000002,3 4,3 ZM5,7 C5,7 3,7 3,7 C3,7 3,5 3,5 C3,5 5,5 5,5 C5,5 5,7 5,7 ZM5,10 C5,10 3,10 3,10 C3,10 3,8 3,8 C3,8 5,8 5,8 C5,8 5,10 5,10 ZM5,12.999 C5,12.999 3,12.999 3,12.999 C3,12.999 3,11 3,11 C3,11 5,11 5,11 C5,11 5,12.999 5,12.999 ZM9,10 C9,10 7,10 7,10 C7,10 7,8 7,8 C7,8 9,8 9,8 C9,8 9,10 9,10 ZM9,12.999 C9,12.999 7,12.999 7,12.999 C7,12.999 7,11 7,11 C7,11 9,11 9,11 C9,11 9,12.999 9,12.999 ZM13,10 C13,10 11,10 11,10 C11,10 11,8 11,8 C11,8 13,8 13,8 C13,8 13,10 13,10 ZM13,12.999 C13,12.999 11,12.999 11,12.999 C11,12.999 11,11 11,11 C11,11 13,11 13,11 C13,11 13,12.999 13,12.999 Z "/>
</svg>
