<?xml version="1.0" encoding="utf-8"?>
<!DOCTYPE svg PUBLIC "-//W3C//DTD SVG 1.1//EN" "http://www.w3.org/Graphics/SVG/1.1/DTD/svg11.dtd">
<svg version="1.1" baseProfile="full"
 xmlns="http://www.w3.org/2000/svg"
 xmlns:xlink="http://www.w3.org/1999/xlink"
 xmlns:ev="http://www.w3.org/2001/xml-events" 
  height="17px" 
  width="17px" 
>
<path fill="rgb( 202, 203, 211 )"
 d="M15,14.9989999999998 C15,14.9989999999998 11,14.9989999999998 11,14.9989999999998 C11,14.9989999999998 8.5,16.9989999999998 8.5,16.9989999999998 C8.5,16.9989999999998 6,14.9989999999998 6,14.9989999999998 C6,14.9989999999998 2,14.9989999999998 2,14.9989999999998 C1.12,14.9989999999998 0,14.145 0,13.261 C0,13.261 0,2.59900000000016 0,2.59900000000016 C0,1.71500000000015 0.71300000000002,0.9989999999998 1.59399999999999,0.9989999999998 C1.59399999999999,0.9989999999998 15.406,0.9989999999998 15.406,0.9989999999998 C16.286,0.9989999999998 17,1.71500000000015 17,2.59900000000016 C17,2.59900000000016 17,13.261 17,13.261 C17,14.145 16.443,15.0929999999998 15,14.9989999999998 ZM15.937,3.13200000000006 C15.937,2.54300000000012 15.587,2 15,2 C15,2 2,2 2,2 C1.41300000000001,2 1,2.40999999999985 1,2.9989999999998 C1,2.9989999999998 1,12.9989999999998 1,12.9989999999998 C1,13.5880000000002 1.41300000000001,14 2,14 C2,14 7,14 7,14 C7,14 8.5,15.4000000000001 8.5,15.4000000000001 C8.5,15.4000000000001 10,14 10,14 C10,14 15,14 15,14 C15.587,14 15.937,13.317 15.937,12.7280000000001 C15.937,12.7280000000001 15.937,3.13200000000006 15.937,3.13200000000006 ZM13.5,6 C13.5,6 3.5,6 3.5,6 C3.22399999999999,6 3,5.77599999999984 3,5.5 C3,5.22400000000016 3.22399999999999,5 3.5,5 C3.5,5 13.5,5 13.5,5 C13.776,5 14,5.22400000000016 14,5.5 C14,5.77599999999984 13.776,6 13.5,6 ZM5.5,9 C5.5,9 11.5,9 11.5,9 C11.776,9 12,9.22400000000016 12,9.5 C12,9.77599999999984 11.776,10 11.5,10 C11.5,10 5.5,10 5.5,10 C5.22399999999999,10 5,9.77599999999984 5,9.5 C5,9.22400000000016 5.22399999999999,9 5.5,9 Z "/>
</svg>
