<?xml version="1.0" encoding="utf-8"?>
<!DOCTYPE svg PUBLIC "-//W3C//DTD SVG 1.1//EN" "http://www.w3.org/Graphics/SVG/1.1/DTD/svg11.dtd">
<svg version="1.1" baseProfile="full"
 xmlns="http://www.w3.org/2000/svg"
 xmlns:xlink="http://www.w3.org/1999/xlink"
 xmlns:ev="http://www.w3.org/2001/xml-events" 
  height="53px" 
  width="157px" 
>
<path fill="rgb( 202, 203, 211 )"
 d="M156.007,0.91199999999981 C156.007,0.91199999999981 80.005,26.1149999999998 80.005,26.1149999999998 C80.005,26.1149999999998 155.381,51.1109999999999 155.381,51.1109999999999 C155.381,51.1109999999999 155.085,52.011 155.085,52.011 C155.085,52.011 78.5,26.614 78.5,26.614 C78.5,26.614 1.91399999999999,52.011 1.91399999999999,52.011 C1.91399999999999,52.011 1.61900000000003,51.1109999999999 1.61900000000003,51.1109999999999 C1.61900000000003,51.1109999999999 76.995,26.1149999999998 76.995,26.1149999999998 C76.995,26.1149999999998 0.993,0.91199999999981 0.993,0.91199999999981 C0.993,0.91199999999981 1.28800000000001,0.01200000000017 1.28800000000001,0.01200000000017 C1.28800000000001,0.01200000000017 78.5,25.616 78.5,25.616 C78.5,25.616 155.712,0.01200000000017 155.712,0.01200000000017 C155.712,0.01200000000017 156.007,0.91199999999981 156.007,0.91199999999981 Z "/>
</svg>
