<?xml version="1.0" encoding="utf-8"?>
<!DOCTYPE svg PUBLIC "-//W3C//DTD SVG 1.1//EN" "http://www.w3.org/Graphics/SVG/1.1/DTD/svg11.dtd">
<svg version="1.1" baseProfile="full"
 xmlns="http://www.w3.org/2000/svg"
 xmlns:xlink="http://www.w3.org/1999/xlink"
 xmlns:ev="http://www.w3.org/2001/xml-events" 
  height="30px" 
  width="39px" 
>
<path fill="rgb( 55, 63, 70 )"
 d="M34.058,5.73699999999999 C34.058,5.73699999999999 31.019,5.73699999999999 31.019,5.73699999999999 C30.756,5.73699999999999 30.543,5.53 30.543,5.27600000000001 C30.543,5.02199999999999 30.756,4.816 31.019,4.816 C31.019,4.816 34.058,4.816 34.058,4.816 C34.32,4.816 34.534,5.02199999999999 34.534,5.27600000000001 C34.534,5.53 34.32,5.73699999999999 34.058,5.73699999999999 ZM38.524,7.118 C38.262,7.118 38.048,6.911 38.048,6.65700000000001 C38.048,6.65700000000001 38.048,5.73699999999999 38.048,5.73699999999999 C38.048,5.73699999999999 37.097,5.73699999999999 37.097,5.73699999999999 C36.834,5.73699999999999 36.621,5.53 36.621,5.27600000000001 C36.621,5.02199999999999 36.834,4.816 37.097,4.816 C37.097,4.816 38.524,4.816 38.524,4.816 C38.787,4.816 39,5.02199999999999 39,5.27600000000001 C39,5.27600000000001 39,6.65700000000001 39,6.65700000000001 C39,6.91200000000001 38.787,7.118 38.524,7.118 ZM38.524,25.547 C38.262,25.547 38.048,25.341 38.048,25.087 C38.048,25.087 38.048,22.015 38.048,22.015 C38.048,21.761 38.262,21.555 38.524,21.555 C38.787,21.555 39,21.761 39,22.015 C39,22.015 39,25.087 39,25.087 C39,25.341 38.787,25.547 38.524,25.547 ZM38.524,19.404 C38.262,19.404 38.048,19.198 38.048,18.944 C38.048,18.944 38.048,15.872 38.048,15.872 C38.048,15.618 38.262,15.412 38.524,15.412 C38.787,15.412 39,15.618 39,15.872 C39,15.872 39,18.944 39,18.944 C39,19.198 38.787,19.404 38.524,19.404 ZM38.524,13.261 C38.262,13.261 38.048,13.055 38.048,12.801 C38.048,12.801 38.048,9.72900000000001 38.048,9.72900000000001 C38.048,9.47499999999999 38.262,9.26900000000001 38.524,9.26900000000001 C38.787,9.26900000000001 39,9.47499999999999 39,9.72900000000001 C39,9.72900000000001 39,12.801 39,12.801 C39,13.055 38.787,13.261 38.524,13.261 ZM38.524,30 C38.524,30 37.097,30 37.097,30 C36.834,30 36.621,29.793 36.621,29.539 C36.621,29.285 36.834,29.079 37.097,29.079 C37.097,29.079 38.048,29.079 38.048,29.079 C38.048,29.079 38.048,28.158 38.048,28.158 C38.048,27.904 38.262,27.698 38.524,27.698 C38.787,27.698 39,27.904 39,28.158 C39,28.158 39,29.539 39,29.539 C39,29.793 38.787,30 38.524,30 ZM34.39,30 C34.39,30 31.683,30 31.683,30 C31.42,30 31.207,29.793 31.207,29.539 C31.207,29.285 31.42,29.079 31.683,29.079 C31.683,29.079 34.39,29.079 34.39,29.079 C34.652,29.079 34.866,29.285 34.866,29.539 C34.866,29.793 34.652,30 34.39,30 ZM28.975,30 C28.975,30 26.268,30 26.268,30 C26.006,30 25.792,29.793 25.792,29.539 C25.792,29.285 26.006,29.079 26.268,29.079 C26.268,29.079 28.975,29.079 28.975,29.079 C29.238,29.079 29.451,29.285 29.451,29.539 C29.451,29.793 29.238,30 28.975,30 ZM23.561,30 C23.561,30 20.854,30 20.854,30 C20.591,30 20.378,29.793 20.378,29.539 C20.378,29.285 20.591,29.079 20.854,29.079 C20.854,29.079 23.561,29.079 23.561,29.079 C23.823,29.079 24.036,29.285 24.036,29.539 C24.036,29.793 23.823,30 23.561,30 ZM18.146,30 C18.146,30 15.439,30 15.439,30 C15.177,30 14.963,29.793 14.963,29.539 C14.963,29.285 15.177,29.079 15.439,29.079 C15.439,29.079 18.146,29.079 18.146,29.079 C18.409,29.079 18.622,29.285 18.622,29.539 C18.622,29.793 18.409,30 18.146,30 ZM12.732,30 C12.732,30 10.025,30 10.025,30 C9.76299999999998,30 9.54899999999998,29.793 9.54899999999998,29.539 C9.54899999999998,29.285 9.76299999999998,29.079 10.025,29.079 C10.025,29.079 12.732,29.079 12.732,29.079 C12.995,29.079 13.208,29.285 13.208,29.539 C13.208,29.793 12.995,30 12.732,30 ZM7.31799999999998,30 C7.31799999999998,30 4.61099999999999,30 4.61099999999999,30 C4.34800000000001,30 4.13499999999999,29.793 4.13499999999999,29.539 C4.13499999999999,29.285 4.34800000000001,29.079 4.61099999999999,29.079 C4.61099999999999,29.079 7.31799999999998,29.079 7.31799999999998,29.079 C7.57999999999998,29.079 7.79300000000001,29.285 7.79300000000001,29.539 C7.79300000000001,29.793 7.57999999999998,30 7.31799999999998,30 ZM1.90300000000002,30 C1.90300000000002,30 0.476,30 0.476,30 C0.21300000000002,30 0,29.793 0,29.539 C0,29.539 0,28.158 0,28.158 C0,27.904 0.21300000000002,27.698 0.476,27.698 C0.738,27.698 0.952,27.904 0.952,28.158 C0.952,28.158 0.952,29.079 0.952,29.079 C0.952,29.079 1.90300000000002,29.079 1.90300000000002,29.079 C2.166,29.079 2.37900000000002,29.285 2.37900000000002,29.539 C2.37900000000002,29.793 2.166,30 1.90300000000002,30 ZM0.476,25.547 C0.21300000000002,25.547 0,25.341 0,25.087 C0,25.087 0,22.015 0,22.015 C0,21.761 0.21300000000002,21.555 0.476,21.555 C0.738,21.555 0.952,21.761 0.952,22.015 C0.952,22.015 0.952,25.087 0.952,25.087 C0.952,25.341 0.738,25.547 0.476,25.547 ZM0.476,19.404 C0.21300000000002,19.404 0,19.198 0,18.944 C0,18.944 0,15.872 0,15.872 C0,15.618 0.21300000000002,15.412 0.476,15.412 C0.738,15.412 0.952,15.618 0.952,15.872 C0.952,15.872 0.952,18.944 0.952,18.944 C0.952,19.198 0.738,19.404 0.476,19.404 ZM0.476,13.261 C0.21300000000002,13.261 0,13.055 0,12.8 C0,12.8 0,9.72900000000001 0,9.72900000000001 C0,9.47499999999999 0.21300000000002,9.26900000000001 0.476,9.26900000000001 C0.738,9.26900000000001 0.952,9.47499999999999 0.952,9.72900000000001 C0.952,9.72900000000001 0.952,12.8 0.952,12.8 C0.952,13.055 0.738,13.261 0.476,13.261 ZM0.476,7.118 C0.21300000000002,7.118 0,6.91200000000001 0,6.65700000000001 C0,6.65700000000001 0,5.27600000000001 0,5.27600000000001 C0,5.02199999999999 0.21300000000002,4.816 0.476,4.816 C0.476,4.816 1.90300000000002,4.816 1.90300000000002,4.816 C2.166,4.816 2.37900000000002,5.02199999999999 2.37900000000002,5.27600000000001 C2.37900000000002,5.53 2.166,5.73699999999999 1.90300000000002,5.73699999999999 C1.90300000000002,5.73699999999999 0.952,5.73699999999999 0.952,5.73699999999999 C0.952,5.73699999999999 0.952,6.65700000000001 0.952,6.65700000000001 C0.952,6.91200000000001 0.738,7.118 0.476,7.118 ZM32.025,20.526 C32.025,20.526 28.604,17.216 28.604,17.216 C28.604,17.216 31.143,16.024 31.143,16.024 C31.317,15.943 31.421,15.768 31.409,15.582 C31.4,15.395 31.271,15.234 31.09,15.174 C31.09,15.174 26.949,13.796 26.949,13.796 C26.949,13.796 26.949,5.73599999999999 26.949,5.73599999999999 C26.949,5.73599999999999 27.979,5.73599999999999 27.979,5.73599999999999 C28.242,5.73599999999999 28.454,5.53100000000001 28.454,5.27500000000001 C28.454,5.02199999999999 28.242,4.815 27.979,4.815 C27.979,4.815 26.949,4.815 26.949,4.815 C26.949,4.815 26.949,0.46100000000001 26.949,0.46100000000001 C26.949,0.20500000000001 26.734,0 26.473,0 C26.473,0 6.55799999999999,0 6.55799999999999,0 C6.29399999999998,0 6.08199999999999,0.20500000000001 6.08199999999999,0.46100000000001 C6.08199999999999,0.46100000000001 6.08199999999999,4.815 6.08199999999999,4.815 C6.08199999999999,4.815 4.98099999999999,4.815 4.98099999999999,4.815 C4.71899999999999,4.815 4.505,5.02199999999999 4.505,5.27500000000001 C4.505,5.53100000000001 4.71899999999999,5.73599999999999 4.98099999999999,5.73599999999999 C4.98099999999999,5.73599999999999 6.08199999999999,5.73599999999999 6.08199999999999,5.73599999999999 C6.08199999999999,5.73599999999999 6.08199999999999,16.59 6.08199999999999,16.59 C6.08199999999999,16.843 6.29399999999998,17.05 6.55799999999999,17.05 C6.55799999999999,17.05 22.6,17.05 22.6,17.05 C22.6,17.05 24.277,21.766 24.277,21.766 C24.341,21.941 24.508,22.063 24.698,22.075 C24.891,22.088 25.071,21.985 25.155,21.817 C25.155,21.817 26.389,19.361 26.389,19.361 C26.389,19.361 29.808,22.671 29.808,22.671 C29.898,22.756 30.02,22.804 30.146,22.804 C30.17,22.804 30.195,22.802 30.219,22.797 C30.234,22.795 30.248,22.793 30.262,22.788 C30.279,22.786 30.296,22.781 30.312,22.774 C30.317,22.774 30.322,22.772 30.326,22.77 C30.382,22.747 30.432,22.714 30.476,22.674 C30.478,22.673 30.48,22.672 30.481,22.671 C30.481,22.671 32.025,21.177 32.025,21.177 C32.113,21.092 32.165,20.974 32.165,20.853 C32.165,20.73 32.113,20.613 32.025,20.526 ZM7.03399999999999,16.129 C7.03399999999999,16.129 7.03399999999999,14.862 7.03399999999999,14.862 C7.03399999999999,14.862 7.04199999999997,14.854 7.04199999999997,14.854 C7.04199999999997,14.854 7.04199999999997,13.551 7.04199999999997,13.551 C7.04199999999997,13.551 7.03300000000002,13.559 7.03300000000002,13.559 C7.03300000000002,13.559 7.03300000000002,0.92099999999999 7.03300000000002,0.92099999999999 C7.03300000000002,0.92099999999999 7.03399999999999,0.92099999999999 7.03399999999999,0.92099999999999 C7.03399999999999,0.92099999999999 25.997,0.92099999999999 25.997,0.92099999999999 C25.997,0.92099999999999 25.997,3.15100000000001 25.997,3.15100000000001 C25.997,3.15100000000001 25.997,10.27 25.997,10.27 C25.997,10.27 25.997,11.573 25.997,11.573 C25.997,11.573 25.997,11.71 25.997,11.71 C25.997,11.71 25.997,13.479 25.997,13.479 C25.997,13.479 21.664,12.036 21.664,12.036 C21.479,11.974 21.281,12.031 21.16,12.164 C21.158,12.164 21.158,12.164 21.155,12.166 C21.024,12.286 20.972,12.472 21.034,12.647 C21.034,12.647 22.271,16.129 22.271,16.129 C22.271,16.129 7.03399999999999,16.129 7.03399999999999,16.129 ZM30.146,21.693 C30.146,21.693 26.589,18.252 26.589,18.252 C26.48,18.146 26.325,18.1 26.173,18.123 C26.021,18.148 25.892,18.243 25.823,18.377 C25.823,18.377 24.803,20.414 24.803,20.414 C24.803,20.414 23.394,16.455 23.394,16.455 C23.39,16.439 23.385,16.425 23.378,16.411 C23.378,16.411 22.238,13.203 22.238,13.203 C22.238,13.203 29.692,15.684 29.692,15.684 C29.692,15.684 27.589,16.671 27.589,16.671 C27.448,16.736 27.351,16.862 27.327,17.009 C27.301,17.157 27.351,17.306 27.458,17.412 C27.458,17.412 31.017,20.853 31.017,20.853 C31.017,20.853 30.146,21.693 30.146,21.693 ZM25.819,13.341 C25.819,13.341 25.997,13.479 25.997,13.479  "/>
</svg>
