<?xml version="1.0" encoding="utf-8"?>
<!DOCTYPE svg PUBLIC "-//W3C//DTD SVG 1.1//EN" "http://www.w3.org/Graphics/SVG/1.1/DTD/svg11.dtd">
<svg version="1.1" baseProfile="full"
 xmlns="http://www.w3.org/2000/svg"
 xmlns:xlink="http://www.w3.org/1999/xlink"
 xmlns:ev="http://www.w3.org/2001/xml-events" 
  height="14px" 
  width="14px" 
>
<path fill="rgb( 203, 34, 39 )"
 d="M8.85900000000004,6.98599999999999 C8.85900000000004,6.98599999999999 12.604,10.731 12.604,10.731 C13.121,11.248 13.121,12.086 12.604,12.603 C12.087,13.121 11.248,13.121 10.731,12.603 C10.731,12.603 6.98599999999999,8.858 6.98599999999999,8.858 C6.98599999999999,8.858 3.24099999999999,12.603 3.24099999999999,12.603 C2.72400000000005,13.121 1.88499999999999,13.121 1.36800000000005,12.603 C0.851,12.086 0.851,11.248 1.36800000000005,10.731 C1.36800000000005,10.731 5.11300000000006,6.98599999999999 5.11300000000006,6.98599999999999 C5.11300000000006,6.98599999999999 1.36800000000005,3.24000000000001 1.36800000000005,3.24000000000001 C0.851,2.72300000000001 0.851,1.88499999999999 1.36800000000005,1.368 C1.88499999999999,0.851 2.72400000000005,0.851 3.24099999999999,1.368 C3.24099999999999,1.368 6.98599999999999,5.113 6.98599999999999,5.113 C6.98599999999999,5.113 10.731,1.368 10.731,1.368 C11.248,0.851 12.087,0.851 12.604,1.368 C13.121,1.88499999999999 13.121,2.72300000000001 12.604,3.24000000000001 C12.604,3.24000000000001 8.85900000000004,6.98599999999999 8.85900000000004,6.98599999999999 Z "/>
</svg>
