<?xml version="1.0" encoding="utf-8"?>
<!DOCTYPE svg PUBLIC "-//W3C//DTD SVG 1.1//EN" "http://www.w3.org/Graphics/SVG/1.1/DTD/svg11.dtd">
<svg version="1.1" baseProfile="full"
 xmlns="http://www.w3.org/2000/svg"
 xmlns:xlink="http://www.w3.org/1999/xlink"
 xmlns:ev="http://www.w3.org/2001/xml-events" 
  height="26px" 
  width="27px" 
>
<path fill="rgb( 203, 34, 39 )"
 d="M25.761,22.275 C25.761,22.275 15.049,1.96499999999998 15.049,1.96499999999998 C14.89,1.66699999999997 14.672,1.43200000000002 14.392,1.25900000000001 C14.114,1.08600000000001 13.811,0.99900000000002 13.486,0.99900000000002 C13.16,0.99900000000002 12.858,1.08600000000001 12.579,1.25900000000001 C12.3,1.43200000000002 12.082,1.66699999999997 11.924,1.96499999999998 C11.924,1.96499999999998 1.21100000000001,22.275 1.21100000000001,22.275 C0.88600000000002,22.881 0.89499999999998,23.486 1.23899999999998,24.092 C1.39699999999999,24.371 1.61399999999998,24.592 1.88799999999998,24.755 C2.16199999999998,24.919 2.45699999999999,25.001 2.774,25.001 C2.774,25.001 24.198,25.001 24.198,25.001 C24.515,25.001 24.81,24.919 25.084,24.755 C25.359,24.592 25.575,24.371 25.733,24.092 C26.077,23.486 26.086,22.881 25.761,22.275 ZM15.272,20.832 C15.272,20.967 15.227,21.08 15.139,21.171 C15.051,21.262 14.946,21.308 14.825,21.308 C14.825,21.308 12.147,21.308 12.147,21.308 C12.026,21.308 11.922,21.262 11.833,21.171 C11.745,21.079 11.701,20.967 11.701,20.832 C11.701,20.832 11.701,18.091 11.701,18.091 C11.701,17.957 11.745,17.844 11.833,17.753 C11.922,17.661 12.026,17.616 12.147,17.616 C12.147,17.616 14.825,17.616 14.825,17.616 C14.946,17.616 15.051,17.661 15.139,17.753 C15.227,17.844 15.272,17.957 15.272,18.091 C15.272,18.091 15.272,20.832 15.272,20.832 C15.272,20.832 15.272,20.832 15.272,20.832 ZM15.244,15.438 C15.234,15.534 15.186,15.613 15.097,15.676 C15.009,15.738 14.9,15.769 14.77,15.769 C14.77,15.769 12.189,15.769 12.189,15.769 C12.059,15.769 11.947,15.738 11.854,15.676 C11.761,15.613 11.715,15.534 11.715,15.437 C11.715,15.437 11.478,8.846 11.478,8.846 C11.478,8.71100000000001 11.524,8.61000000000001 11.617,8.54300000000001 C11.738,8.43700000000001 11.85,8.38400000000001 11.952,8.38400000000001 C11.952,8.38400000000001 15.021,8.38400000000001 15.021,8.38400000000001 C15.123,8.38400000000001 15.235,8.43700000000001 15.356,8.54300000000001 C15.449,8.61000000000001 15.495,8.702 15.495,8.81700000000001 C15.495,8.81700000000001 15.244,15.438 15.244,15.438 Z "/>
</svg>
