<?xml version="1.0" encoding="utf-8"?>
<!DOCTYPE svg PUBLIC "-//W3C//DTD SVG 1.1//EN" "http://www.w3.org/Graphics/SVG/1.1/DTD/svg11.dtd">
<svg version="1.1" baseProfile="full"
 xmlns="http://www.w3.org/2000/svg"
 xmlns:xlink="http://www.w3.org/1999/xlink"
 xmlns:ev="http://www.w3.org/2001/xml-events" 
  height="16px" 
  width="17px" 
>
<path fill="rgb( 255, 255, 255 )"
 d="M1.54500000000007,6.54500000000007 C2.21100000000001,2.82099999999991 5.3889999999999,0 9.20800000000008,0 C13.511,0 17,3.58100000000013 17,8 C17,12.4180000000001 13.511,16 9.20800000000008,16 C6.01099999999997,16 3.26299999999992,14.0219999999999 2.0619999999999,11.194 C2.0619999999999,11.194 2.63100000000009,10.703 2.63100000000009,10.703 C3.67599999999993,13.3809999999999 6.22700000000009,15.2730000000001 9.20800000000008,15.2730000000001 C13.1199999999999,15.2730000000001 16.2919999999999,12.0160000000001 16.2919999999999,8 C16.2919999999999,3.98300000000017 13.1199999999999,0.72699999999986 9.20800000000008,0.72699999999986 C5.78099999999995,0.72699999999986 2.923,3.22600000000011 2.26700000000005,6.54500000000007 C2.26700000000005,6.54500000000007 1.54500000000007,6.54500000000007 1.54500000000007,6.54500000000007 C1.54500000000007,6.54500000000007 1.54500000000007,6.54500000000007 1.54500000000007,6.54500000000007 ZM8.85400000000004,8.25399999999991 C8.85400000000004,8.25399999999991 12.5450000000001,10.4879999999998 12.5450000000001,10.4879999999998 C12.5450000000001,10.4879999999998 12.905,9.86099999999988 12.905,9.86099999999988 C12.905,9.86099999999988 9.5619999999999,7.82099999999991 9.5619999999999,7.82099999999991 C9.5619999999999,7.82099999999991 9.5619999999999,2.93199999999979 9.5619999999999,2.93199999999979 C9.5619999999999,2.93199999999979 8.85400000000004,2.93199999999979 8.85400000000004,2.93199999999979 C8.85400000000004,2.93199999999979 8.85400000000004,8.25399999999991 8.85400000000004,8.25399999999991 ZM1.77099999999996,8.72699999999986 C1.77099999999996,8.72699999999986 3.54199999999992,6.54500000000007 3.54199999999992,6.54500000000007 C3.54199999999992,6.54500000000007 0,6.54500000000007 0,6.54500000000007 C0,6.54500000000007 1.77099999999996,8.72699999999986 1.77099999999996,8.72699999999986 Z "/>
</svg>
