<?xml version="1.0" encoding="utf-8"?>
<!DOCTYPE svg PUBLIC "-//W3C//DTD SVG 1.1//EN" "http://www.w3.org/Graphics/SVG/1.1/DTD/svg11.dtd">
<svg version="1.1" baseProfile="full"
 xmlns="http://www.w3.org/2000/svg"
 xmlns:xlink="http://www.w3.org/1999/xlink"
 xmlns:ev="http://www.w3.org/2001/xml-events" 
  height="10px" 
  width="8px" 
>
<path fill="rgb( 153, 153, 153 )"
 d="M3.15800000000002,4.99800000000005 C3.15800000000002,4.99800000000005 6.89600000000002,8.46000000000004 6.89600000000002,8.46000000000004 C7.02999999999997,8.58399999999995 7.02999999999997,8.78599999999994 6.89600000000002,8.91099999999994 C6.82799999999997,8.97299999999996 6.74000000000001,9.00400000000002 6.65199999999999,9.00400000000002 C6.56400000000002,9.00400000000002 6.476,8.97299999999996 6.40899999999999,8.91099999999994 C6.40899999999999,8.91099999999994 2.42700000000002,5.22400000000005 2.42700000000002,5.22400000000005 C2.29300000000001,5.09900000000005 2.29300000000001,4.89700000000005 2.42700000000002,4.77300000000002 C2.42700000000002,4.77300000000002 6.40899999999999,1.08600000000001 6.40899999999999,1.08600000000001 C6.54300000000001,0.96100000000001 6.76100000000002,0.96100000000001 6.89600000000002,1.08600000000001 C7.02999999999997,1.21000000000004 7.02999999999997,1.41200000000003 6.89600000000002,1.53700000000003 C6.89600000000002,1.53700000000003 3.15800000000002,4.99800000000005 3.15800000000002,4.99800000000005 ZM0,1 C0,1 0.77800000000002,1 0.77800000000002,1 C0.77800000000002,1 0.77800000000002,9 0.77800000000002,9 C0.77800000000002,9 0,9 0,9 C0,9 0,1 0,1 Z "/>
</svg>
