<?xml version="1.0" encoding="utf-8"?>
<!DOCTYPE svg PUBLIC "-//W3C//DTD SVG 1.1//EN" "http://www.w3.org/Graphics/SVG/1.1/DTD/svg11.dtd">
<svg version="1.1" baseProfile="full"
 xmlns="http://www.w3.org/2000/svg"
 xmlns:xlink="http://www.w3.org/1999/xlink"
 xmlns:ev="http://www.w3.org/2001/xml-events" 
  height="10px" 
  width="6px" 
>
<path fill="rgb( 153, 153, 153 )"
 d="M4.702,9.00400000000002 C4.77699999999999,9.00400000000002 4.85300000000001,8.97299999999996 4.911,8.91099999999994 C5.02600000000001,8.78599999999994 5.02600000000001,8.58399999999995 4.911,8.46000000000004 C4.911,8.46000000000004 1.70699999999999,4.99800000000005 1.70699999999999,4.99800000000005 C1.70699999999999,4.99800000000005 4.911,1.53700000000003 4.911,1.53700000000003 C5.02600000000001,1.41200000000003 5.02600000000001,1.21000000000004 4.911,1.08600000000001 C4.79500000000002,0.96100000000001 4.608,0.96100000000001 4.493,1.08600000000001 C4.493,1.08600000000001 1.07999999999998,4.77300000000002 1.07999999999998,4.77300000000002 C0.96499999999997,4.89700000000005 0.96499999999997,5.09900000000005 1.07999999999998,5.22400000000005 C1.07999999999998,5.22400000000005 4.493,8.91099999999994 4.493,8.91099999999994 C4.55099999999999,8.97299999999996 4.62599999999998,9.00400000000002 4.702,9.00400000000002 Z "/>
</svg>
