<?xml version="1.0" encoding="utf-8"?>
<!DOCTYPE svg PUBLIC "-//W3C//DTD SVG 1.1//EN" "http://www.w3.org/Graphics/SVG/1.1/DTD/svg11.dtd">
<svg version="1.1" baseProfile="full"
 xmlns="http://www.w3.org/2000/svg"
 xmlns:xlink="http://www.w3.org/1999/xlink"
 xmlns:ev="http://www.w3.org/2001/xml-events" 
  height="10px" 
  width="8px" 
>
<path fill="rgb( 153, 153, 153 )"
 d="M7.22199999999998,9 C7.22199999999998,9 7.22199999999998,1 7.22199999999998,1 C7.22199999999998,1 8,1 8,1 C8,1 8,9 8,9 C8,9 7.22199999999998,9 7.22199999999998,9 ZM1.59100000000001,8.91099999999994 C1.524,8.97299999999996 1.43600000000004,9.00400000000002 1.34799999999996,9.00400000000002 C1.25999999999999,9.00400000000002 1.17200000000003,8.97299999999996 1.10400000000004,8.91099999999994 C0.97000000000003,8.78599999999994 0.97000000000003,8.58399999999995 1.10400000000004,8.46000000000004 C1.10400000000004,8.46000000000004 4.84199999999998,4.99800000000005 4.84199999999998,4.99800000000005 C4.84199999999998,4.99800000000005 1.10400000000004,1.53700000000003 1.10400000000004,1.53700000000003 C0.97000000000003,1.41200000000003 0.97000000000003,1.21000000000004 1.10400000000004,1.08600000000001 C1.23900000000003,0.96100000000001 1.45699999999999,0.96100000000001 1.59100000000001,1.08600000000001 C1.59100000000001,1.08600000000001 5.57299999999998,4.77300000000002 5.57299999999998,4.77300000000002 C5.70699999999999,4.89700000000005 5.70699999999999,5.09900000000005 5.57299999999998,5.22400000000005 C5.57299999999998,5.22400000000005 1.59100000000001,8.91099999999994 1.59100000000001,8.91099999999994 Z "/>
</svg>
