<?xml version="1.0" encoding="utf-8"?>
<!DOCTYPE svg PUBLIC "-//W3C//DTD SVG 1.1//EN" "http://www.w3.org/Graphics/SVG/1.1/DTD/svg11.dtd">
<svg version="1.1" baseProfile="full"
 xmlns="http://www.w3.org/2000/svg"
 xmlns:xlink="http://www.w3.org/1999/xlink"
 xmlns:ev="http://www.w3.org/2001/xml-events" 
  height="16px" 
  width="18px" 
>
<path fill="rgb( 202, 203, 211 )"
 d="M16.795,14.829 C16.795,14.829 14.275,12.311 14.275,12.311 C14.249,12.285 14.217,12.274 14.188,12.253 C16.643,9.32299999999999 16.497,4.94 13.742,2.187 C12.33,0.777 10.454,0 8.45799999999997,0 C6.46199999999999,0 4.58500000000004,0.777 3.17399999999998,2.187 C0.25999999999999,5.099 0.25999999999999,9.836 3.17399999999998,12.747 C4.58500000000004,14.158 6.46199999999999,14.935 8.45799999999997,14.935 C10.23,14.935 11.9059999999999,14.32 13.248,13.195 C13.268,13.223 13.279,13.255 13.304,13.28 C13.304,13.28 15.825,15.799 15.825,15.799 C15.9589999999999,15.933 16.135,16 16.3099999999999,16 C16.486,16 16.662,15.933 16.795,15.799 C17.063,15.531 17.063,15.097 16.795,14.829 ZM8.45799999999997,13.563 C6.82799999999997,13.563 5.29700000000003,12.929 4.14400000000001,11.778 C1.76599999999996,9.401 1.76599999999996,5.53400000000001 4.14400000000001,3.157 C5.29700000000003,2.005 6.82799999999997,1.371 8.45799999999997,1.371 C10.087,1.371 11.619,2.005 12.771,3.157 C15.15,5.53400000000001 15.15,9.401 12.771,11.778 C11.619,12.929 10.087,13.563 8.45799999999997,13.563 Z "/>
</svg>
