<?xml version="1.0" encoding="utf-8"?>
<!DOCTYPE svg PUBLIC "-//W3C//DTD SVG 1.1//EN" "http://www.w3.org/Graphics/SVG/1.1/DTD/svg11.dtd">
<svg version="1.1" baseProfile="full"
 xmlns="http://www.w3.org/2000/svg"
 xmlns:xlink="http://www.w3.org/1999/xlink"
 xmlns:ev="http://www.w3.org/2001/xml-events" 
  height="17px" 
  width="24px" 
>
<path fill="rgb( 255, 255, 255 )"
 d="M13.463,0.0010000000002 C13.274,0.01600000000008 13.131,0.1840000000002 13.145,0.37699999999995 C13.148,0.42500000000018 13.1609999999999,0.471 13.183,0.51400000000012 C13.183,0.51400000000012 15.918,6.12300000000005 15.918,6.12300000000005 C15.918,6.12300000000005 7.52700000000004,6.12300000000005 7.52700000000004,6.12300000000005 C7.33699999999999,6.11900000000014 7.17999999999995,6.27399999999989 7.17700000000002,6.46799999999985 C7.17399999999998,6.66199999999981 7.32500000000005,6.82200000000012 7.51499999999999,6.82499999999982 C7.51900000000001,6.82499999999982 7.52300000000002,6.82499999999982 7.52700000000004,6.82499999999982 C7.52700000000004,6.82499999999982 16.473,6.82499999999982 16.473,6.82499999999982 C16.663,6.82499999999982 16.817,6.66699999999992 16.816,6.47299999999996 C16.816,6.41899999999987 16.804,6.36599999999999 16.78,6.31700000000001 C16.78,6.31700000000001 13.799,0.19999999999982 13.799,0.19999999999982 C13.7430000000001,0.08100000000013 13.626,0.00500000000011 13.497,0.0010000000002 C13.486,0.0010000000002 13.474,0.0010000000002 13.463,0.0010000000002 C13.463,0.0010000000002 13.463,0.0010000000002 13.463,0.0010000000002 ZM2.96799999999996,5.96300000000019 C1.87400000000002,5.97400000000016 0.98800000000006,6.89899999999989 0.99800000000005,8.02100000000019 C1.00800000000004,9.14199999999983 1.91099999999994,10.0509999999999 3.005,10.0410000000002 C4.09799999999996,10.0309999999999 4.98400000000004,9.10500000000002 4.97400000000005,7.98399999999992 C4.96400000000006,6.86299999999983 4.06100000000004,5.95299999999997 2.96799999999996,5.96300000000019 ZM20.995,5.96300000000019 C19.902,5.97400000000016 19.016,6.89899999999989 19.026,8.02100000000019 C19.0359999999999,9.14199999999983 19.939,10.0509999999999 21.032,10.0410000000002 C22.126,10.0309999999999 23.0119999999999,9.10500000000002 23.002,7.98399999999992 C22.992,6.86299999999983 22.0890000000001,5.95299999999997 20.995,5.96300000000019 C20.995,5.96300000000019 20.995,5.96300000000019 20.995,5.96300000000019 ZM2.97500000000002,6.72800000000007 C3.66600000000005,6.72200000000021 4.22199999999998,7.28200000000015 4.22799999999995,7.98999999999978 C4.23500000000001,8.69900000000007 3.68799999999999,9.26999999999998 2.99699999999996,9.27599999999984 C2.30700000000002,9.2829999999999 1.75,8.72200000000021 1.74400000000003,8.01400000000012 C1.73800000000006,7.30600000000004 2.28399999999999,6.73500000000013 2.97500000000002,6.72800000000007 C2.97500000000002,6.72800000000007 2.97500000000002,6.72800000000007 2.97500000000002,6.72800000000007 ZM21.003,6.72800000000007 C21.693,6.72200000000021 22.25,7.28200000000015 22.256,7.98999999999978 C22.2619999999999,8.69900000000007 21.716,9.26999999999998 21.025,9.27599999999984 C20.3339999999999,9.2829999999999 19.778,8.72299999999996 19.771,8.01400000000012 C19.765,7.30600000000004 20.312,6.73500000000013 21.003,6.72800000000007 C21.003,6.72800000000007 21.003,6.72800000000007 21.003,6.72800000000007 ZM7.52700000000004,9.17999999999984 C7.33699999999999,9.18100000000004 7.18299999999999,9.33800000000019 7.18399999999997,9.5329999999999 C7.18399999999997,9.58699999999999 7.19600000000003,9.63999999999987 7.22000000000003,9.6880000000001 C7.22000000000003,9.6880000000001 10.201,15.8049999999998 10.201,15.8049999999998 C10.285,15.9789999999998 10.491,16.0509999999999 10.662,15.9650000000001 C10.832,15.8789999999999 10.902,15.6689999999999 10.819,15.4949999999999 C10.818,15.4940000000001 10.818,15.4929999999999 10.817,15.4920000000002 C10.817,15.4920000000002 8.08199999999999,9.88299999999981 8.08199999999999,9.88299999999981 C8.08199999999999,9.88299999999981 16.473,9.88299999999981 16.473,9.88299999999981 C16.663,9.88599999999997 16.819,9.73100000000022 16.822,9.53600000000006 C16.824,9.3420000000001 16.672,9.18299999999999 16.482,9.17999999999984 C16.479,9.17999999999984 16.476,9.17999999999984 16.473,9.17999999999984 C16.473,9.17999999999984 7.52700000000004,9.17999999999984 7.52700000000004,9.17999999999984 Z "/>
</svg>
