<?xml version="1.0" encoding="utf-8"?>
<!DOCTYPE svg PUBLIC "-//W3C//DTD SVG 1.1//EN" "http://www.w3.org/Graphics/SVG/1.1/DTD/svg11.dtd">
<svg version="1.1" baseProfile="full"
 xmlns="http://www.w3.org/2000/svg"
 xmlns:xlink="http://www.w3.org/1999/xlink"
 xmlns:ev="http://www.w3.org/2001/xml-events" 
  height="21px" 
  width="17px" 
>
<path fill="rgb( 202, 203, 211 )"
 d="M15.895,17.4099999999999 C15.575,15.7240000000002 11.501,14.5680000000002 10.357,14.2750000000001 C10.357,14.2750000000001 10.357,12.8600000000001 10.357,12.8600000000001 C11.525,12.3220000000001 12.402,11.297 12.694,10.0590000000002 C13.069,10.02 13.684,9.79599999999982 13.769,9.14499999999998 C13.778,9.07799999999997 13.793,8.98799999999983 13.81,8.88299999999981 C13.972,7.91100000000006 14.099,6.83800000000019 13.546,6.39800000000014 C13.404,6.28499999999985 13.161,6.1869999999999 12.802,6.24499999999989 C12.802,6.24499999999989 12.802,5.11400000000003 12.802,5.11400000000003 C12.802,2.8449999999998 10.874,0.9989999999998 8.50299999999999,0.9989999999998 C6.13200000000001,0.9989999999998 4.20299999999997,2.8449999999998 4.20299999999997,5.11400000000003 C4.20299999999997,5.11400000000003 4.20299999999997,6.24499999999989 4.20299999999997,6.24499999999989 C3.84500000000003,6.1880000000001 3.60199999999998,6.28600000000006 3.459,6.39800000000014 C2.90699999999998,6.83800000000019 3.03300000000002,7.91100000000006 3.19600000000003,8.88299999999981 C3.21300000000002,8.98799999999983 3.22800000000001,9.07799999999997 3.23700000000002,9.14499999999998 C3.322,9.79599999999982 3.93700000000001,10.02 4.31200000000001,10.0590000000002 C4.60399999999999,11.297 5.48000000000002,12.3220000000001 6.64800000000002,12.8589999999999 C6.64800000000002,12.8589999999999 6.64800000000002,14.2750000000001 6.64800000000002,14.2750000000001 C5.50400000000002,14.5680000000002 1.43099999999998,15.7199999999998 1.12099999999998,17.3679999999999 C1.11099999999999,17.4000000000001 0.85300000000001,18.1599999999999 1.11200000000002,19.3539999999998 C1.11200000000002,19.3539999999998 1.14400000000001,19.5030000000002 1.14400000000001,19.5030000000002 C1.14400000000001,19.5030000000002 1.28699999999998,19.5700000000002 1.28699999999998,19.5700000000002 C1.41199999999998,19.6280000000002 4.39400000000001,20.9989999999998 8.50299999999999,20.9989999999998 C12.612,20.9989999999998 15.593,19.6280000000002 15.718,19.5700000000002 C15.718,19.5700000000002 15.861,19.5030000000002 15.861,19.5030000000002 C15.861,19.5030000000002 15.893,19.3539999999998 15.893,19.3539999999998 C16.15,18.1680000000001 15.898,17.4099999999999 15.895,17.4099999999999 Z "/>
</svg>
